<svg width="11" height="7" viewBox="0 0 11 7" fill="none" xmlns="http://www.w3.org/2000/svg">
<path d="M0.457654 0.500007C0.518134 0.499667 0.578088 0.510953 0.63408 0.533219C0.69007 0.555485 0.740995 0.588293 0.783936 0.629761L5.51273 5.23378L10.2415 0.629762C10.3294 0.556461 10.4425 0.518159 10.5582 0.522509C10.6738 0.526858 10.7836 0.573539 10.8654 0.653223C10.9472 0.732907 10.9952 0.839726 10.9997 0.952332C11.0041 1.06494 10.9648 1.17504 10.8895 1.26063L5.51273 6.5L0.131372 1.26063C0.0681338 1.19782 0.0253138 1.11826 0.00826216 1.03188C-0.00878953 0.945509 0.000684278 0.856159 0.0354991 0.774998C0.070314 0.693838 0.128927 0.624468 0.20401 0.575559C0.279092 0.526649 0.367317 0.500371 0.457654 0.500007Z" fill="#27251F"/>
</svg>
