<svg width="16" height="12" viewBox="0 0 16 12" fill="none" xmlns="http://www.w3.org/2000/svg">
<path d="M14.7411 5.25857C15.0863 5.70143 15.0863 6.29929 14.7411 6.74143C13.6539 8.13357 11.0455 11 8.00011 11C4.95475 11 2.34631 8.13357 1.2591 6.74143C1.09116 6.52938 1 6.26851 1 6C1 5.73149 1.09116 5.47062 1.2591 5.25857C2.34631 3.86643 4.95475 1 8.00011 1C11.0455 1 13.6539 3.86643 14.7411 5.25857V5.25857Z" stroke="black" stroke-linecap="round" stroke-linejoin="round"/>
<path d="M8.00013 8.14283C9.20666 8.14283 10.1847 7.18344 10.1847 5.99997C10.1847 4.81651 9.20666 3.85712 8.00013 3.85712C6.79359 3.85712 5.81551 4.81651 5.81551 5.99997C5.81551 7.18344 6.79359 8.14283 8.00013 8.14283Z" stroke="black" stroke-linecap="round" stroke-linejoin="round"/>
</svg>
