<svg width="10" height="15" viewBox="0 0 10 15" fill="none" xmlns="http://www.w3.org/2000/svg">
<path fill-rule="evenodd" clip-rule="evenodd" d="M8.69539 7.95394C9.19035 7.23947 9.48002 6.37426 9.48002 5.44198C9.48002 2.98874 7.47425 1 5.00002 1C2.52578 1 0.52002 2.98874 0.52002 5.44198C0.52002 6.29793 0.764192 7.09733 1.18724 7.77545L2.91737 10.8992H6.82245L8.69539 7.95394Z" fill="#FDB827"/>
<path d="M8.69539 7.95394L8.48973 7.81146L8.48443 7.81979L8.69539 7.95394ZM1.18724 7.77545L1.40623 7.65416L1.39935 7.64312L1.18724 7.77545ZM2.91737 10.8992L2.69867 11.0204L2.77005 11.1492H2.91737V10.8992ZM6.82245 10.8992V11.1492H6.95974L7.03341 11.0334L6.82245 10.8992ZM9.23002 5.44198C9.23002 6.32163 8.95689 7.13746 8.48989 7.81157L8.90089 8.0963C9.42381 7.34147 9.73002 6.42689 9.73002 5.44198H9.23002ZM5.00002 1.25C7.3382 1.25 9.23002 3.12882 9.23002 5.44198H9.73002C9.73002 2.84867 7.61031 0.75 5.00002 0.75V1.25ZM0.77002 5.44198C0.77002 3.12882 2.66184 1.25 5.00002 1.25V0.75C2.38973 0.75 0.27002 2.84867 0.27002 5.44198H0.77002ZM1.39935 7.64312C1.00028 7.00345 0.77002 6.24969 0.77002 5.44198H0.27002C0.27002 6.34616 0.528098 7.19121 0.975132 7.90777L1.39935 7.64312ZM3.13606 10.7781L1.40594 7.65432L0.968543 7.89657L2.69867 11.0204L3.13606 10.7781ZM6.82245 10.6492H2.91737V11.1492H6.82245V10.6492ZM8.48443 7.81979L6.61149 10.7651L7.03341 11.0334L8.90635 8.08809L8.48443 7.81979Z" fill="#27251F"/>
<path d="M5.99509 13.7942L5.9951 13.7942C5.98964 13.7358 5.98523 13.6588 6.00852 13.5778C6.03345 13.4912 6.08148 13.4278 6.12841 13.3772L6.12858 13.377C6.13557 13.3695 6.142 13.3626 6.14794 13.3563C6.18076 13.3211 6.19862 13.302 6.21361 13.2805C6.22649 13.262 6.22929 13.2521 6.23037 13.2425L6.47882 13.2703M5.99509 13.7942L3.47802 13.7866M5.99509 13.7942L5.99524 13.7958C6.00954 13.9394 6.01289 13.9773 5.99411 14.0218L5.99509 13.7942ZM6.47882 13.2703L6.23031 13.2431C6.23509 13.1994 6.2273 13.1559 6.21016 13.0638C6.1981 13.0167 6.19071 12.9658 6.19071 12.9126V12.8819L6.19816 12.8521C6.22522 12.7437 6.29665 12.6727 6.33218 12.6395C6.34947 12.6234 6.36771 12.608 6.37998 12.5977C6.38174 12.5962 6.38337 12.5948 6.38486 12.5936C6.39985 12.5809 6.4047 12.5764 6.40646 12.5746L6.40684 12.5742C6.50395 12.4747 6.58074 12.3482 6.60257 12.2402L6.60283 12.2389C6.60886 12.2099 6.61159 12.1706 6.60784 12.1339C6.60751 12.1308 6.60716 12.1278 6.60678 12.125C6.59515 12.1301 6.58197 12.1362 6.56641 12.1436L6.56416 12.1446L6.56416 12.1446C6.55539 12.1487 6.54537 12.1541 6.5269 12.1647C6.52533 12.1656 6.52367 12.1666 6.52193 12.1676C6.50613 12.1767 6.48326 12.1898 6.45867 12.2021C5.64045 12.6214 4.69332 12.6145 3.86126 12.3921C3.65235 12.3369 3.43287 12.2668 3.22356 12.1627C3.19016 12.1464 3.15934 12.1326 3.13068 12.1225C3.11287 12.1162 3.0987 12.1124 3.08786 12.1102C3.07806 12.1367 3.07228 12.1758 3.07696 12.2309C3.08256 12.2967 3.10184 12.3692 3.12782 12.4377L2.89409 12.5264M6.47882 13.2703C6.48789 13.1876 6.47292 13.1082 6.45801 13.029C6.45674 13.0223 6.45548 13.0156 6.45423 13.0089L6.22312 14.1221C6.26928 14.0149 6.25873 13.9132 6.24718 13.8019C6.24612 13.7917 6.24505 13.7814 6.24402 13.771C6.23418 13.6657 6.24402 13.6201 6.31163 13.5473C6.31723 13.5413 6.32283 13.5353 6.32842 13.5294C6.39888 13.4542 6.46629 13.3824 6.47882 13.2703ZM2.89409 12.5264L3.12754 12.4369C3.14392 12.4797 3.18323 12.5236 3.26295 12.6126L3.2635 12.6132L3.26367 12.6134C3.26496 12.6148 3.26632 12.6164 3.26773 12.6179C3.29538 12.6488 3.34434 12.7034 3.37441 12.7727C3.41315 12.8621 3.41218 12.949 3.39605 13.0286L3.39584 13.0296C3.38979 13.0589 3.39153 13.0773 3.39719 13.137C3.39868 13.1528 3.40046 13.1715 3.40243 13.194C3.41376 13.3107 3.4261 13.3523 3.44852 13.3819L3.44904 13.3826L3.44904 13.3826C3.46725 13.4067 3.49022 13.4292 3.53109 13.4692C3.53439 13.4724 3.53781 13.4757 3.54135 13.4792C3.58188 13.5189 3.64131 13.5776 3.68861 13.6519M2.89409 12.5264C2.92771 12.6141 2.99708 12.691 3.05937 12.7601C3.06541 12.7668 3.07139 12.7734 3.07726 12.78M2.89409 12.5264C2.8314 12.3612 2.78714 12.1427 2.87319 11.9789C2.97523 11.7838 3.18544 11.8657 3.33419 11.9385C3.52228 12.0322 3.72389 12.0972 3.9255 12.1505L3.07726 12.78M3.68861 13.6519C3.68878 13.6521 3.68895 13.6524 3.68912 13.6527L3.47802 13.7866M3.68861 13.6519C3.68844 13.6516 3.68827 13.6513 3.6881 13.6511L3.47802 13.7866M3.68861 13.6519C3.74133 13.7339 3.76127 13.8206 3.7724 13.8749C3.77736 13.899 3.78081 13.9173 3.78359 13.932C3.78871 13.9591 3.79155 13.9741 3.79728 13.9915M3.47802 13.7866C3.51116 13.838 3.52304 13.9006 3.53487 13.9629C3.54191 14 3.54892 14.037 3.56039 14.0714M3.79728 13.9915C3.79716 13.9912 3.79704 13.9908 3.79692 13.9905L3.56039 14.0714M3.79728 13.9915C3.83116 14.0895 3.92136 14.2076 4.00803 14.2707M3.79728 13.9915C3.79738 13.9918 3.79749 13.9921 3.7976 13.9925L3.56039 14.0714M3.56039 14.0714L4.00803 14.2707M4.00803 14.2707C4.03742 14.2918 4.06998 14.3029 4.14463 14.3286C4.15535 14.3323 4.16693 14.3362 4.1795 14.3406C4.26461 14.37 4.39667 14.4185 4.50428 14.5357L4.50493 14.5364C4.63568 14.68 4.80052 14.7584 4.94198 14.7492L4.94274 14.7492C5.01798 14.7445 5.08299 14.7134 5.16809 14.6457C5.20659 14.6151 5.24364 14.5816 5.2879 14.5417C5.29507 14.5352 5.30244 14.5286 5.31003 14.5217C5.36152 14.4754 5.42182 14.422 5.48931 14.3728C5.48938 14.3728 5.48946 14.3727 5.48953 14.3727L4.00803 14.2707ZM3.07726 12.78C3.14119 12.8515 3.16946 12.8879 3.15102 12.979L3.07726 12.78ZM6.59743 12.0848C6.59683 12.0842 6.59653 12.0839 6.59653 12.0839C6.59652 12.0839 6.59682 12.0842 6.5974 12.0851L6.59757 12.0849M6.59743 12.0848L6.59757 12.0849M6.59743 12.0848L6.80083 11.9399L6.59757 12.0849M6.59743 12.0848L6.59757 12.0849M4.32012 14.7048C4.48362 14.8843 4.71719 15.0143 4.95814 14.9987L4.32012 14.7048Z" fill="#78A3AD" stroke="#27251F" stroke-width="0.5"/>
</svg>
