<svg width="35" height="13" viewBox="0 0 35 13" fill="none" xmlns="http://www.w3.org/2000/svg">
<rect x="0.5" y="0.5" width="34" height="12" rx="1.5" fill="#FDB827" stroke="#27251F"/>
<path d="M10.2305 9H9.01562L9.02344 8.22266H10.2305C10.582 8.22266 10.8763 8.14583 11.1133 7.99219C11.3529 7.83854 11.5326 7.61849 11.6523 7.33203C11.7747 7.04557 11.8359 6.70443 11.8359 6.30859V6C11.8359 5.69271 11.8008 5.42057 11.7305 5.18359C11.6628 4.94661 11.5612 4.7474 11.4258 4.58594C11.293 4.42448 11.1289 4.30208 10.9336 4.21875C10.7409 4.13542 10.5182 4.09375 10.2656 4.09375H8.99219V3.3125H10.2656C10.6432 3.3125 10.9883 3.3763 11.3008 3.50391C11.6133 3.62891 11.8828 3.8099 12.1094 4.04688C12.3385 4.28385 12.5143 4.56771 12.6367 4.89844C12.7591 5.22917 12.8203 5.59896 12.8203 6.00781V6.30859C12.8203 6.71745 12.7591 7.08724 12.6367 7.41797C12.5143 7.7487 12.3385 8.03255 12.1094 8.26953C11.8802 8.50391 11.6068 8.6849 11.2891 8.8125C10.974 8.9375 10.6211 9 10.2305 9ZM9.55859 3.3125V9H8.57812V3.3125H9.55859ZM13.5312 6.93359V6.84375C13.5312 6.53906 13.5755 6.25651 13.6641 5.99609C13.7526 5.73307 13.8802 5.50521 14.0469 5.3125C14.2161 5.11719 14.4219 4.96615 14.6641 4.85938C14.9089 4.75 15.1849 4.69531 15.4922 4.69531C15.8021 4.69531 16.0781 4.75 16.3203 4.85938C16.5651 4.96615 16.7721 5.11719 16.9414 5.3125C17.1107 5.50521 17.2396 5.73307 17.3281 5.99609C17.4167 6.25651 17.4609 6.53906 17.4609 6.84375V6.93359C17.4609 7.23828 17.4167 7.52083 17.3281 7.78125C17.2396 8.04167 17.1107 8.26953 16.9414 8.46484C16.7721 8.65755 16.5664 8.80859 16.3242 8.91797C16.082 9.02474 15.8073 9.07812 15.5 9.07812C15.1901 9.07812 14.9128 9.02474 14.668 8.91797C14.4258 8.80859 14.2201 8.65755 14.0508 8.46484C13.8815 8.26953 13.7526 8.04167 13.6641 7.78125C13.5755 7.52083 13.5312 7.23828 13.5312 6.93359ZM14.4727 6.84375V6.93359C14.4727 7.1237 14.4922 7.30339 14.5312 7.47266C14.5703 7.64193 14.6315 7.79036 14.7148 7.91797C14.7982 8.04557 14.9049 8.14583 15.0352 8.21875C15.1654 8.29167 15.3203 8.32812 15.5 8.32812C15.6745 8.32812 15.8255 8.29167 15.9531 8.21875C16.0833 8.14583 16.1901 8.04557 16.2734 7.91797C16.3568 7.79036 16.418 7.64193 16.457 7.47266C16.4987 7.30339 16.5195 7.1237 16.5195 6.93359V6.84375C16.5195 6.65625 16.4987 6.47917 16.457 6.3125C16.418 6.14323 16.3555 5.99349 16.2695 5.86328C16.1862 5.73307 16.0794 5.63151 15.9492 5.55859C15.8216 5.48307 15.6693 5.44531 15.4922 5.44531C15.3151 5.44531 15.1615 5.48307 15.0312 5.55859C14.9036 5.63151 14.7982 5.73307 14.7148 5.86328C14.6315 5.99349 14.5703 6.14323 14.5312 6.3125C14.4922 6.47917 14.4727 6.65625 14.4727 6.84375ZM19.1836 5.67578V9H18.2422V4.77344H19.1289L19.1836 5.67578ZM19.0156 6.73047L18.7109 6.72656C18.7135 6.42708 18.7552 6.15234 18.8359 5.90234C18.9193 5.65234 19.0339 5.4375 19.1797 5.25781C19.3281 5.07812 19.5052 4.9401 19.7109 4.84375C19.9167 4.74479 20.1458 4.69531 20.3984 4.69531C20.6016 4.69531 20.7852 4.72396 20.9492 4.78125C21.1159 4.83594 21.2578 4.92578 21.375 5.05078C21.4948 5.17578 21.5859 5.33854 21.6484 5.53906C21.7109 5.73698 21.7422 5.98047 21.7422 6.26953V9H20.7969V6.26562C20.7969 6.0625 20.7669 5.90234 20.707 5.78516C20.6497 5.66536 20.5651 5.58073 20.4531 5.53125C20.3438 5.47917 20.207 5.45312 20.043 5.45312C19.8815 5.45312 19.737 5.48698 19.6094 5.55469C19.4818 5.6224 19.3737 5.71484 19.2852 5.83203C19.1992 5.94922 19.1328 6.08464 19.0859 6.23828C19.0391 6.39193 19.0156 6.55599 19.0156 6.73047ZM24.5664 9.07812C24.2539 9.07812 23.9714 9.02734 23.7188 8.92578C23.4688 8.82161 23.2552 8.67708 23.0781 8.49219C22.9036 8.30729 22.7695 8.08984 22.6758 7.83984C22.582 7.58984 22.5352 7.32031 22.5352 7.03125V6.875C22.5352 6.54427 22.5833 6.24479 22.6797 5.97656C22.776 5.70833 22.9102 5.47917 23.082 5.28906C23.2539 5.09635 23.457 4.94922 23.6914 4.84766C23.9258 4.74609 24.1797 4.69531 24.4531 4.69531C24.7552 4.69531 25.0195 4.74609 25.2461 4.84766C25.4727 4.94922 25.6602 5.09245 25.8086 5.27734C25.9596 5.45964 26.0716 5.67708 26.1445 5.92969C26.2201 6.18229 26.2578 6.46094 26.2578 6.76562V7.16797H22.9922V6.49219H25.3281V6.41797C25.3229 6.2487 25.2891 6.08984 25.2266 5.94141C25.1667 5.79297 25.0742 5.67318 24.9492 5.58203C24.8242 5.49089 24.6576 5.44531 24.4492 5.44531C24.293 5.44531 24.1536 5.47917 24.0312 5.54688C23.9115 5.61198 23.8112 5.70703 23.7305 5.83203C23.6497 5.95703 23.5872 6.10807 23.543 6.28516C23.5013 6.45964 23.4805 6.65625 23.4805 6.875V7.03125C23.4805 7.21615 23.5052 7.38802 23.5547 7.54688C23.6068 7.70312 23.6823 7.83984 23.7812 7.95703C23.8802 8.07422 24 8.16667 24.1406 8.23438C24.2812 8.29948 24.4414 8.33203 24.6211 8.33203C24.8477 8.33203 25.0495 8.28646 25.2266 8.19531C25.4036 8.10417 25.5573 7.97526 25.6875 7.80859L26.1836 8.28906C26.0924 8.42188 25.974 8.54948 25.8281 8.67188C25.6823 8.79167 25.5039 8.88932 25.293 8.96484C25.0846 9.04036 24.8424 9.07812 24.5664 9.07812Z" fill="#27251F"/>
</svg>
