<svg width="15" height="15" viewBox="0 0 15 15" fill="none" xmlns="http://www.w3.org/2000/svg">
<path d="M1.12658 13.114C1.48404 13.472 1.90872 13.7558 2.3762 13.9492C2.84369 14.1425 3.34477 14.2416 3.85065 14.2407C4.35665 14.2415 4.85784 14.1425 5.32545 13.9491C5.79306 13.7558 6.21787 13.472 6.5755 13.114L8.75476 10.934L7.66513 9.84439L5.48587 12.0244C5.05161 12.4567 4.4638 12.6994 3.85104 12.6994C3.23828 12.6994 2.65047 12.4567 2.21621 12.0244C1.78352 11.5904 1.54055 11.0025 1.54055 10.3896C1.54055 9.7767 1.78352 9.18881 2.21621 8.75476L4.39624 6.5755L3.30661 5.48587L1.12658 7.66513C0.40515 8.3883 0 9.36809 0 10.3896C0 11.4111 0.40515 12.3909 1.12658 13.114ZM13.114 6.5755C13.8351 5.85212 14.24 4.87241 14.24 3.85104C14.24 2.82967 13.8351 1.84996 13.114 1.12658C12.3909 0.40515 11.4111 0 10.3896 0C9.36809 0 8.3883 0.40515 7.66513 1.12658L5.48587 3.30661L6.5755 4.39624L8.75476 2.21621C9.18901 1.7839 9.77683 1.54119 10.3896 1.54119C11.0023 1.54119 11.5902 1.7839 12.0244 2.21621C12.4571 2.65027 12.7001 3.23816 12.7001 3.85104C12.7001 4.46392 12.4571 5.05181 12.0244 5.48587L9.84439 7.66513L10.934 8.75476L13.114 6.5755Z" fill="#191919"/>
<path d="M4.39545 10.9348L3.30505 9.84516L9.84514 3.30584L10.9348 4.39624L4.39545 10.9348Z" fill="#191919"/>
</svg>