<svg width="20" height="7" viewBox="0 0 20 7" fill="none" xmlns="http://www.w3.org/2000/svg">
<rect width="20" height="7" rx="2" fill="#191919"/>
<path d="M10 5C10.3978 5 10.7794 4.84196 11.0607 4.56066C11.342 4.27936 11.5 3.89782 11.5 3.5C11.5 3.10218 11.342 2.72064 11.0607 2.43934C10.7794 2.15804 10.3978 2 10 2C9.60218 2 9.22064 2.15804 8.93934 2.43934C8.65804 2.72064 8.5 3.10218 8.5 3.5C8.5 3.89782 8.65804 4.27936 8.93934 4.56066C9.22064 4.84196 9.60218 5 10 5ZM3.5 5C3.89782 5 4.27936 4.84196 4.56066 4.56066C4.84196 4.27936 5 3.89782 5 3.5C5 3.10218 4.84196 2.72064 4.56066 2.43934C4.27936 2.15804 3.89782 2 3.5 2C3.10218 2 2.72064 2.15804 2.43934 2.43934C2.15804 2.72064 2 3.10218 2 3.5C2 3.89782 2.15804 4.27936 2.43934 4.56066C2.72064 4.84196 3.10218 5 3.5 5ZM16.5 5C16.8978 5 17.2794 4.84196 17.5607 4.56066C17.842 4.27936 18 3.89782 18 3.5C18 3.10218 17.842 2.72064 17.5607 2.43934C17.2794 2.15804 16.8978 2 16.5 2C16.1022 2 15.7206 2.15804 15.4393 2.43934C15.158 2.72064 15 3.10218 15 3.5C15 3.89782 15.158 4.27936 15.4393 4.56066C15.7206 4.84196 16.1022 5 16.5 5Z" fill="#FCF782"/>
</svg>