<svg width="6" height="11" viewBox="0 0 6 11" fill="none" xmlns="http://www.w3.org/2000/svg">
<path d="M7.64541e-06 10.5423C-0.000332796 10.4819 0.0109533 10.4219 0.0332194 10.3659C0.0554854 10.3099 0.0882931 10.259 0.129761 10.2161L4.73378 5.48727L0.129762 0.758472C0.0564614 0.670558 0.0181596 0.557474 0.0225091 0.441815C0.0268586 0.326157 0.0735388 0.216443 0.153223 0.1346C0.232907 0.0527559 0.339726 0.00480986 0.452332 0.000342483C0.564939 -0.00412489 0.675041 0.0352156 0.760634 0.110502L6 5.48727L0.760633 10.8686C0.697822 10.9319 0.618257 10.9747 0.531883 10.9917C0.44551 11.0088 0.356159 10.9993 0.274999 10.9645C0.193838 10.9297 0.124468 10.8711 0.0755591 10.796C0.0266501 10.7209 0.000371286 10.6327 7.64541e-06 10.5423Z" fill="#27251F"/>
</svg>
